<?xml version="1.0" encoding="UTF-8"?>
<!-- Created by grConvert v0.1-0 -->
<svg xmlns="http://www.w3.org/2000/svg" xmlns:xlink="http://www.w3.org/1999/xlink" width="612pt" height="792pt" viewBox="0 0 612 792" version="1.1">
<g id="surface6">
<path style=" stroke:none;fill-rule:nonzero;fill:rgb(93.766785%,20.625305%,14.305115%);fill-opacity:1;" d="M 35.617188 746.832031 C 35.617188 752.734375 40.417969 757.53125 46.316406 757.53125 C 52.21875 757.53125 57.015625 752.734375 57.015625 746.832031 C 57.015625 741.21875 52.667969 736.605469 47.164062 736.171875 L 15.835938 736.171875 L 15.835938 739.84375 L 46.539062 739.84375 C 50.292969 739.960938 53.3125 743.050781 53.3125 746.832031 C 53.3125 750.691406 50.171875 753.828125 46.316406 753.828125 C 42.460938 753.828125 39.320312 750.691406 39.320312 746.832031 "/>
<path style=" stroke:none;fill-rule:nonzero;fill:rgb(93.766785%,20.625305%,14.305115%);fill-opacity:1;" d="M 29.308594 746.832031 C 29.308594 756.210938 36.941406 763.839844 46.316406 763.839844 C 55.695312 763.839844 63.324219 756.210938 63.324219 746.832031 C 63.324219 737.738281 56.148438 730.300781 47.164062 729.855469 L 15.835938 729.855469 L 15.835938 733.535156 L 46.539062 733.535156 C 53.773438 733.65625 59.621094 739.570312 59.621094 746.832031 C 59.621094 754.167969 53.652344 760.136719 46.316406 760.136719 C 38.980469 760.136719 33.015625 754.167969 33.015625 746.832031 "/>
<path style=" stroke:none;fill-rule:nonzero;fill:rgb(93.766785%,20.625305%,14.305115%);fill-opacity:1;" d="M 69.632812 746.832031 C 69.632812 734.261719 59.628906 723.984375 47.164062 723.535156 L 46.640625 723.535156 C 46.605469 723.535156 46.574219 723.535156 46.539062 723.535156 L 36.792969 723.535156 L 36.792969 727.226562 L 46.539062 727.226562 C 57.25 727.347656 65.925781 736.09375 65.925781 746.832031 C 65.925781 757.644531 57.128906 766.445312 46.316406 766.445312 C 41.183594 766.445312 36.332031 764.472656 32.652344 760.898438 L 30.070312 763.554688 C 34.445312 767.804688 40.214844 770.148438 46.316406 770.148438 C 59.171875 770.148438 69.632812 759.6875 69.632812 746.832031 "/>
<path style=" stroke:none;fill-rule:nonzero;fill:rgb(93.766785%,20.625305%,14.305115%);fill-opacity:1;" d="M 46.914062 717.226562 C 46.707031 717.21875 47.117188 717.226562 46.914062 717.226562 L 36.792969 717.226562 L 36.792969 720.925781 L 46.828125 720.925781 C 60.882812 721.199219 72.234375 732.714844 72.234375 746.832031 C 72.234375 761.125 60.609375 772.75 46.316406 772.75 L 46.316406 776.457031 C 62.652344 776.457031 75.9375 763.167969 75.9375 746.832031 C 75.9375 730.78125 62.855469 717.675781 46.914062 717.226562 "/>
<path style=" stroke:none;fill-rule:nonzero;fill:rgb(13.729858%,12.159729%,12.548828%);fill-opacity:1;" d="M 94.777344 751.359375 C 94.761719 750.699219 95.4375 750.472656 96.167969 750.472656 C 97.285156 750.472656 99.042969 751.152344 99.652344 751.394531 L 100.679688 749.027344 C 98.503906 747.949219 96.796875 747.84375 95.996094 747.84375 C 93.664062 747.84375 91.972656 749.203125 91.972656 751.484375 C 91.972656 753.988281 94.183594 754.667969 95.945312 755.242188 C 97.09375 755.609375 98.03125 755.941406 98.03125 756.707031 C 98.03125 757.316406 97.265625 757.75 96.363281 757.75 C 95.265625 757.75 94.078125 757.28125 92.878906 756.707031 L 91.644531 759.039062 C 93.226562 759.894531 94.671875 760.363281 96.464844 760.363281 C 99.128906 760.363281 100.976562 758.710938 100.976562 756.585938 C 100.976562 754.355469 99.113281 753.519531 97.421875 752.929688 C 96.066406 752.441406 94.847656 752.109375 94.777344 751.359375 M 105.925781 760.222656 L 108.730469 760.222656 L 108.730469 750.628906 L 111.949219 750.628906 L 111.949219 748.035156 L 102.738281 748.035156 L 102.738281 750.628906 L 105.925781 750.628906 Z M 118.996094 757.769531 C 117.34375 757.769531 116.90625 756.078125 116.90625 755.4375 L 116.90625 748.035156 L 114.121094 748.035156 L 114.121094 755.4375 C 114.121094 757.507812 115.375 760.347656 118.996094 760.347656 C 122.617188 760.347656 123.871094 757.507812 123.871094 755.4375 L 123.871094 748.035156 L 121.070312 748.035156 L 121.070312 755.4375 C 121.070312 756.078125 120.652344 757.769531 118.996094 757.769531 M 131.550781 760.222656 C 136.183594 760.222656 137.59375 756.722656 137.59375 754.113281 C 137.59375 751.570312 136.183594 748.035156 131.550781 748.035156 L 127.164062 748.035156 L 127.164062 760.222656 Z M 129.933594 757.628906 L 129.933594 750.613281 L 131.550781 750.613281 C 134.371094 750.613281 134.773438 753.207031 134.773438 754.113281 C 134.773438 755.019531 134.371094 757.628906 131.550781 757.628906 Z M 143.128906 748.035156 L 140.34375 748.035156 L 140.34375 760.222656 L 143.128906 760.222656 Z M 153.714844 755.503906 L 153.714844 752.910156 L 149.3125 752.910156 L 149.3125 750.628906 L 154.953125 750.628906 L 154.953125 748.035156 L 146.523438 748.035156 L 146.523438 760.222656 L 154.953125 760.222656 L 154.953125 757.628906 L 149.3125 757.628906 L 149.3125 755.503906 Z M 160.179688 751.359375 C 160.160156 750.699219 160.839844 750.472656 161.570312 750.472656 C 162.683594 750.472656 164.445312 751.152344 165.054688 751.394531 L 166.082031 749.027344 C 163.902344 747.949219 162.199219 747.84375 161.398438 747.84375 C 159.0625 747.84375 157.371094 749.203125 157.371094 751.484375 C 157.371094 753.988281 159.585938 754.667969 161.34375 755.242188 C 162.492188 755.609375 163.433594 755.941406 163.433594 756.707031 C 163.433594 757.316406 162.667969 757.75 161.761719 757.75 C 160.664062 757.75 159.480469 757.28125 158.28125 756.707031 L 157.042969 759.039062 C 158.628906 759.894531 160.074219 760.363281 161.867188 760.363281 C 164.53125 760.363281 166.375 758.710938 166.375 756.585938 C 166.375 754.355469 164.515625 753.519531 162.824219 752.929688 C 161.464844 752.441406 160.246094 752.109375 160.179688 751.359375 M 184.640625 750.300781 C 183.335938 748.820312 181.839844 747.859375 179.746094 747.859375 C 175.117188 747.859375 173.691406 751.570312 173.691406 754.113281 C 173.691406 756.722656 175.117188 760.382812 179.746094 760.382812 C 181.699219 760.382812 183.230469 759.511719 184.554688 758.1875 L 182.953125 756.269531 C 182.117188 757.039062 180.847656 757.71875 179.765625 757.71875 C 176.929688 757.71875 176.527344 755.019531 176.527344 754.113281 C 176.527344 753.207031 176.929688 750.488281 179.746094 750.488281 C 180.777344 750.488281 182.082031 751.257812 182.777344 752.09375 Z M 194.316406 755.503906 L 194.316406 752.910156 L 189.910156 752.910156 L 189.910156 750.628906 L 195.554688 750.628906 L 195.554688 748.035156 L 187.125 748.035156 L 187.125 760.222656 L 195.554688 760.222656 L 195.554688 757.628906 L 189.910156 757.628906 L 189.910156 755.503906 Z M 198.480469 747.929688 L 198.480469 760.222656 L 201.285156 760.222656 L 201.285156 753.957031 L 208.441406 760.328125 L 208.582031 760.257812 L 208.582031 748.035156 L 205.792969 748.035156 L 205.792969 754.199219 L 198.636719 747.878906 Z M 214.027344 760.222656 L 216.828125 760.222656 L 216.828125 750.628906 L 220.050781 750.628906 L 220.050781 748.035156 L 210.839844 748.035156 L 210.839844 750.628906 L 214.027344 750.628906 Z M 225.078125 756.132812 L 226.3125 756.132812 L 228.230469 760.222656 L 231.277344 760.222656 L 229.132812 755.660156 C 230.441406 755.019531 231.378906 753.78125 231.378906 752.058594 C 231.378906 750.402344 230.355469 748.035156 226.976562 748.035156 L 222.308594 748.035156 L 222.308594 760.222656 L 225.078125 760.222656 Z M 227.132812 753.519531 L 225.078125 753.519531 L 225.078125 750.613281 L 227.0625 750.613281 C 228.316406 750.613281 228.59375 751.554688 228.59375 752.058594 C 228.59375 752.511719 228.316406 753.484375 227.132812 753.519531 M 241.363281 755.503906 L 241.363281 752.910156 L 236.957031 752.910156 L 236.957031 750.628906 L 242.601562 750.628906 L 242.601562 748.035156 L 234.171875 748.035156 L 234.171875 760.222656 L 242.601562 760.222656 L 242.601562 757.628906 L 236.957031 757.628906 L 236.957031 755.503906 L 241.363281 755.503906 "/>
<path style=" stroke:none;fill-rule:nonzero;fill:rgb(13.729858%,12.159729%,12.548828%);fill-opacity:1;" d="M 97.039062 739.96875 C 95.386719 739.96875 94.949219 738.28125 94.949219 737.636719 L 94.949219 730.234375 L 92.164062 730.234375 L 92.164062 737.636719 C 92.164062 739.707031 93.417969 742.546875 97.039062 742.546875 C 100.664062 742.546875 101.914062 739.707031 101.914062 737.636719 L 101.914062 730.234375 L 99.113281 730.234375 L 99.113281 737.636719 C 99.113281 738.28125 98.695312 739.96875 97.039062 739.96875 M 105.207031 730.132812 L 105.207031 742.425781 L 108.011719 742.425781 L 108.011719 736.15625 L 115.164062 742.53125 L 115.308594 742.460938 L 115.308594 730.234375 L 112.519531 730.234375 L 112.519531 736.398438 L 105.363281 730.078125 Z M 121.511719 730.234375 L 118.726562 730.234375 L 118.726562 742.425781 L 121.511719 742.425781 Z M 126.929688 742.425781 L 129.730469 742.425781 L 129.730469 732.832031 L 132.953125 732.832031 L 132.953125 730.234375 L 123.742188 730.234375 L 123.742188 732.832031 L 126.929688 732.832031 Z M 142.402344 737.707031 L 142.402344 735.109375 L 137.996094 735.109375 L 137.996094 732.832031 L 143.640625 732.832031 L 143.640625 730.234375 L 135.210938 730.234375 L 135.210938 742.425781 L 143.640625 742.425781 L 143.640625 739.832031 L 137.996094 739.832031 L 137.996094 737.707031 Z M 150.957031 742.425781 C 155.589844 742.425781 156.996094 738.925781 156.996094 736.3125 C 156.996094 733.769531 155.589844 730.234375 150.957031 730.234375 L 146.570312 730.234375 L 146.570312 742.425781 Z M 149.335938 739.832031 L 149.335938 732.8125 L 150.957031 732.8125 C 153.777344 732.8125 154.175781 735.40625 154.175781 736.3125 C 154.175781 737.21875 153.777344 739.832031 150.957031 739.832031 Z M 167.445312 733.5625 C 167.429688 732.898438 168.109375 732.671875 168.839844 732.671875 C 169.953125 732.671875 171.710938 733.351562 172.320312 733.597656 L 173.347656 731.226562 C 171.171875 730.148438 169.464844 730.042969 168.664062 730.042969 C 166.332031 730.042969 164.640625 731.402344 164.640625 733.683594 C 164.640625 736.191406 166.851562 736.871094 168.613281 737.445312 C 169.761719 737.808594 170.703125 738.140625 170.703125 738.90625 C 170.703125 739.515625 169.933594 739.953125 169.03125 739.953125 C 167.933594 739.953125 166.75 739.480469 165.546875 738.90625 L 164.3125 741.238281 C 165.894531 742.09375 167.339844 742.5625 169.132812 742.5625 C 171.796875 742.5625 173.644531 740.910156 173.644531 738.785156 C 173.644531 736.554688 171.78125 735.71875 170.09375 735.128906 C 168.734375 734.640625 167.515625 734.308594 167.445312 733.5625 M 178.59375 742.425781 L 181.398438 742.425781 L 181.398438 732.832031 L 184.621094 732.832031 L 184.621094 730.234375 L 175.410156 730.234375 L 175.410156 732.832031 L 178.59375 732.832031 Z M 190.65625 730.132812 L 190.410156 730.132812 L 184.628906 742.425781 L 187.746094 742.425781 L 188.808594 739.882812 L 192.257812 739.882812 L 193.320312 742.425781 L 196.433594 742.425781 Z M 190.53125 735.738281 L 191.332031 737.6875 L 189.714844 737.6875 Z M 199.667969 742.425781 L 202.46875 742.425781 L 202.46875 732.832031 L 205.691406 732.832031 L 205.691406 730.234375 L 196.480469 730.234375 L 196.480469 732.832031 L 199.667969 732.832031 Z M 215.140625 737.707031 L 215.140625 735.109375 L 210.738281 735.109375 L 210.738281 732.832031 L 216.378906 732.832031 L 216.378906 730.234375 L 207.949219 730.234375 L 207.949219 742.425781 L 216.378906 742.425781 L 216.378906 739.832031 L 210.738281 739.832031 L 210.738281 737.707031 Z M 221.601562 733.5625 C 221.585938 732.898438 222.265625 732.671875 222.996094 732.671875 C 224.109375 732.671875 225.871094 733.351562 226.480469 733.597656 L 227.507812 731.226562 C 225.328125 730.148438 223.621094 730.042969 222.824219 730.042969 C 220.488281 730.042969 218.800781 731.402344 218.800781 733.683594 C 218.800781 736.191406 221.011719 736.871094 222.769531 737.445312 C 223.917969 737.808594 224.859375 738.140625 224.859375 738.90625 C 224.859375 739.515625 224.09375 739.953125 223.1875 739.953125 C 222.089844 739.953125 220.90625 739.480469 219.707031 738.90625 L 218.46875 741.238281 C 220.054688 742.09375 221.5 742.5625 223.292969 742.5625 C 225.957031 742.5625 227.800781 740.910156 227.800781 738.785156 C 227.800781 736.554688 225.941406 735.71875 224.25 735.128906 C 222.890625 734.640625 221.671875 734.308594 221.601562 733.5625 "/>
<path style=" stroke:none;fill-rule:nonzero;fill:rgb(13.729858%,12.159729%,12.548828%);fill-opacity:1;" d="M 22.6875 720.929688 L 26.378906 720.929688 L 26.378906 717.242188 L 22.6875 717.242188 L 22.6875 720.929688 "/>
<path style=" stroke:none;fill-rule:nonzero;fill:rgb(13.729858%,12.159729%,12.548828%);fill-opacity:1;" d="M 26.378906 723.519531 L 22.6875 723.519531 L 22.6875 727.210938 L 26.378906 727.210938 L 26.378906 723.519531 "/>
<path style=" stroke:none;fill-rule:nonzero;fill:rgb(13.729858%,12.159729%,12.548828%);fill-opacity:1;" d="M 29.421875 720.929688 L 33.109375 720.929688 L 33.109375 717.242188 L 29.421875 717.242188 L 29.421875 720.929688 "/>
<path style=" stroke:none;fill-rule:nonzero;fill:rgb(13.729858%,12.159729%,12.548828%);fill-opacity:1;" d="M 33.109375 723.519531 L 29.421875 723.519531 L 29.421875 727.210938 L 33.109375 727.210938 L 33.109375 723.519531 "/>
<path style=" stroke:none;fill-rule:nonzero;fill:rgb(13.729858%,12.159729%,12.548828%);fill-opacity:1;" d="M 15.835938 720.929688 L 19.527344 720.929688 L 19.527344 717.242188 L 15.835938 717.242188 L 15.835938 720.929688 "/>
<path style=" stroke:none;fill-rule:nonzero;fill:rgb(13.729858%,12.159729%,12.548828%);fill-opacity:1;" d="M 15.835938 727.210938 L 19.527344 727.210938 L 19.527344 723.523438 L 15.835938 723.523438 L 15.835938 727.210938 "/>
</g>
</svg>
